<svg width="296" height="342" viewBox="0 0 296 342" fill="none" xmlns="http://www.w3.org/2000/svg">
<path d="M244.839 116.587L230.267 170.964L221.611 203.274L286.957 268.62L295.732 266.268V261.485L288.337 263.467L226.764 201.893L235.05 170.964L248.611 120.359L244.839 116.587ZM139.993 170.964L141.857 172.829L148.818 170.964L218.235 152.364L215.806 149.936L214.462 148.592L210.69 144.82L207.636 141.767L206.916 141.048L145.999 157.371L124.392 135.764L127.659 132.496L147.381 152.217L203.146 137.274L200.533 134.662L199.373 133.502L195.601 129.73L192.364 126.493L191.828 125.958L151.525 136.757L143.996 129.229L147.264 125.961L152.905 131.603L188.054 122.184L184.282 118.412L154.286 126.448L150.531 122.694L147.264 119.426L143.996 122.694L140.729 125.961L137.462 129.229L140.729 132.496L150.143 141.91L190.445 131.111L194.218 134.883L148.76 147.062L130.927 129.227L127.659 125.96L117.857 135.762L118.074 135.979L121.123 139.029L144.617 162.524L205.535 146.201L209.308 149.973L143.236 167.676L89.2083 113.648L106.912 47.5772L110.684 51.3509L94.3626 112.268L111.539 129.446L114.807 132.714L118.074 129.446L121.34 126.179L124.608 122.911L121.34 119.644H121.339L109.821 108.126L122 62.6704L125.772 66.4425L114.973 106.745L130.922 122.694L134.189 125.961L137.457 122.694L140.724 119.426L143.992 116.159V116.157L140.724 112.89L130.435 102.6L137.09 77.7587L140.862 81.5308L135.587 101.22L155.66 121.293L180.502 114.637L178.144 112.279L176.728 110.863L172.956 107.09L169.974 104.108L169.184 103.316L159.804 105.83L151.049 97.0747L152.182 92.8471L160.239 100.904L165.391 99.5217L153.564 87.6944L152.826 86.9565L149.792 83.9207L145.898 98.4553L158.426 110.984L167.807 108.47L171.579 112.242L157.044 116.137L140.743 99.8359L146.018 80.147L144.549 78.6776L142.245 76.3734L138.472 72.6013L136.379 70.5081L134.7 68.8292L133.471 73.4185L133.112 73.7772L133.318 73.9835L125.282 103.979L137.457 116.156L134.189 119.423L120.126 105.36L130.925 65.0571L129.844 63.9764L127.153 61.285L123.381 57.5129L121.675 55.8086L119.607 53.7408L104.665 109.505L118.07 122.91L114.802 126.177L99.5106 110.886L115.834 49.9687L114.596 48.7309L112.061 46.195L108.289 42.423L106.428 40.5615L104.517 38.6509L84.0524 115.029L139.988 170.964H139.993ZM166.67 170.964L140.477 177.983L133.458 170.964L78.9029 116.41L100.75 34.8772L96.9778 31.1051L73.7502 117.792L126.924 170.966L139.096 183.139L184.523 170.966L225.781 159.912L222.009 156.138L166.67 170.966V170.964ZM47.2329 208.171L48.3136 209.252L51.005 211.943L54.7771 215.715L56.4814 217.42L58.5492 219.488L71.5507 170.964L73.4899 163.725L60.0853 150.32L63.3528 147.053L78.6442 162.344L76.3337 170.964L62.3213 223.261L63.559 224.499L66.0949 227.033L69.867 230.807L71.7285 232.668L73.6391 234.579L90.6842 170.964L94.104 158.201L36.3038 100.401L0.0063478 110.127V114.91L34.9216 105.554L88.9497 159.582L85.8996 170.964L71.2461 225.653L67.474 221.881L81.1166 170.964L83.7969 160.962L66.6186 143.784L63.3512 140.516L60.0837 143.784L56.8163 147.051L53.5488 150.319H53.5472L56.8147 153.586L68.3325 165.104L66.763 170.963L56.1529 210.561L52.3792 206.789L61.9785 170.964L63.1782 166.486L47.2297 150.538L43.9623 147.27L40.6948 150.538L37.4273 153.805L34.1599 157.073L37.4273 160.34L47.7169 170.63L47.6264 170.964L41.0598 195.471L37.2877 191.699L42.5626 172.01L41.5168 170.964L22.4881 151.937L0 157.963V160.948L0.0031745 160.951L1.4187 162.367L5.19079 166.139L8.1726 169.121L8.96447 169.912L18.3447 167.399L21.9121 170.966L27.0997 176.155L25.9667 180.383L17.9115 172.326L12.7588 173.708L24.586 185.536L25.324 186.272L28.3581 189.308L32.2524 174.773L28.4454 170.964L19.7237 162.244L10.3435 164.758L6.56982 160.986L21.1044 157.092L34.9787 170.966L37.4051 173.392L32.1302 193.081L33.5997 194.551L35.9039 196.855L39.676 200.627L41.7691 202.72L43.4481 204.401L44.678 199.811L45.0366 199.453L44.8303 199.246L52.4078 170.968L52.868 169.252L40.6916 157.076L43.9591 153.808L58.0207 167.872L57.1908 170.969L47.2218 208.176L47.2329 208.171ZM81.1881 242.126L100.255 170.966L104.416 155.441L39.0698 90.0954L0.0111083 100.561V105.344L37.6892 95.2481L99.263 156.822L95.4719 170.966L77.416 238.354L81.1897 242.126H81.1881ZM67.9469 235.419L66.6027 234.074L62.8307 230.302L59.7774 227.249L59.0586 226.53L0.0111083 242.352V247.135L57.6764 231.683L61.45 235.455L0.0111083 251.918V256.701L70.3764 237.847L67.9469 235.417V235.419ZM7.80603 206.776L32.6476 200.119L30.2894 197.763L28.8739 196.347L25.1018 192.575L22.12 189.593L21.3281 188.801L11.9479 191.315L3.19287 182.56L4.32593 178.333L12.3827 186.388L17.5354 185.006L5.70813 173.178L4.97021 172.44L3.49438 170.964L1.93445 169.406L1.51709 170.964L0.0111083 176.585V185.91L10.5688 196.468L19.9507 193.954L23.7228 197.726L9.18823 201.62L0.0111083 192.443V198.978L7.80603 206.775V206.776ZM5.0448 217.083L40.1933 207.665L36.4197 203.893L6.42383 211.931L2.66919 208.176V208.174L0.0095223 205.515V212.051L5.04321 217.085L5.0448 217.083ZM2.28198 227.39L42.5848 216.591L46.3569 220.364L0.899781 232.543L0.0095223 231.653V237.566L55.2833 222.755L52.6712 220.143L51.5112 218.983L47.7391 215.211L44.5018 211.974L43.9654 211.437L3.6626 222.236L0.0095223 218.583V225.118L2.28198 227.39ZM74.1469 241.62L0.0095223 261.485V266.268L77.919 245.392L74.1469 241.62ZM121.023 177.799L129.908 186.684L135.061 185.302L131.289 181.53L120.723 170.964L112.323 162.565L108.551 158.793L107.171 163.946L105.29 170.964L100.226 189.861L98.8456 195.016L104 193.634L124.755 188.067L124.742 188.052L124.744 188.051L113.32 176.628L111.939 181.782L115.834 185.677L105.381 188.479L110.073 170.964L110.943 167.719L114.19 170.964L121.024 177.799H121.023ZM48.6198 257.089L43.4656 258.47L47.2376 262.244L66.2028 281.209L69.9749 284.981L71.3571 279.828L62.472 270.943L52.3919 260.863L73.1519 255.301L70.3494 265.754L66.4552 261.86L61.3009 263.24L72.7235 274.663L72.7251 274.661L72.7377 274.674L78.3046 253.919L79.6868 248.765L74.5325 250.145L48.6183 257.089H48.6198ZM184.168 185.883L107.789 206.35L110.219 208.777L111.563 210.122L115.335 213.894L118.388 216.947L119.109 217.667L180.026 201.344L201.633 222.952L198.366 226.219L178.644 206.497L122.879 221.439L125.493 224.052L126.653 225.212L130.425 228.985L133.663 232.221L134.199 232.757L174.502 221.958L182.03 229.485L178.763 232.753L173.121 227.111L137.973 236.529L141.745 240.302L171.741 232.264L175.495 236.018L178.763 239.286L182.03 236.018L185.296 232.751L188.563 229.484L185.296 226.216L175.882 216.803L135.58 227.601L131.807 223.829L177.265 211.65L195.1 229.485L198.367 232.753L208.17 222.95L207.952 222.733L204.902 219.683L181.408 196.188L120.49 212.511L116.717 208.739L182.789 191.036L236.817 245.064L219.113 311.135L215.341 307.361L231.664 246.444L214.487 229.268L211.22 226L207.952 229.268L204.685 232.535L201.417 235.803L204.683 239.07H204.685L216.203 250.588L204.023 296.045L200.251 292.273L211.05 251.97L195.101 236.022L191.834 232.754L188.567 236.022L185.299 239.289L182.033 242.557L185.301 245.824L195.59 256.114L188.933 280.955L185.161 277.183L190.436 257.494L170.361 237.421L145.52 244.077L147.878 246.435L149.292 247.85L153.066 251.623L156.048 254.604L156.839 255.396L166.22 252.883L174.975 261.638L173.842 265.865L165.785 257.808L160.632 259.191L172.459 271.018L173.197 271.756L176.233 274.791L180.127 260.257L167.599 247.728L158.217 250.242L154.445 246.47L168.979 242.576L185.28 258.876L180.005 278.565L181.475 280.035L183.779 282.339L187.551 286.111L189.644 288.204L191.323 289.883L192.553 285.294L192.912 284.935L192.705 284.729L200.743 254.733L188.567 242.557L191.834 239.289L205.896 253.351L195.097 293.654L196.177 294.734L198.869 297.426L202.641 301.198L204.347 302.902L206.415 304.97L221.357 249.206L207.952 235.801L211.22 232.534L226.511 247.825L210.188 308.742L211.426 309.98L213.96 312.514L217.734 316.286L219.595 318.148L221.506 320.058L241.973 243.68L184.171 185.878L184.168 185.883ZM186.93 175.576L100.244 198.804L104.016 202.576L185.548 180.729L247.122 242.303L225.275 323.835L229.047 327.607L252.275 240.922L186.929 175.576H186.93ZM218.235 323.33L215.806 320.901L214.462 319.558L210.69 315.786L207.636 312.733L206.916 312.014L145.999 328.337L124.392 306.73L127.659 303.464L147.381 323.184L203.146 308.242L200.533 305.63L199.373 304.47L195.601 300.698L192.364 297.461L191.828 296.924L151.525 307.723L143.996 300.195L147.264 296.927L152.905 302.569L188.054 293.15L184.282 289.378L154.286 297.415L150.531 293.66L147.264 290.392L143.996 293.66L140.729 296.927L137.462 300.195L140.729 303.462L150.143 312.876L190.445 302.077L194.218 305.849L148.76 318.029L130.927 300.195L127.659 296.927L117.857 306.73L118.074 306.949L121.123 309.997L144.617 333.491L205.535 317.168L209.308 320.942L143.236 338.646L89.2083 284.618L106.912 218.547L110.684 222.319L94.3626 283.237L111.539 300.414L114.807 303.681L118.074 300.414L121.34 297.146L124.608 293.879L121.34 290.611H121.339L109.821 279.094L122 233.638L125.772 237.41L114.973 277.713L130.922 293.661L134.189 296.929L137.457 293.661L140.724 290.394L143.992 287.127L140.724 283.859L130.435 273.57L137.09 248.728L140.862 252.502L135.587 272.189L155.66 292.262L180.502 285.606L178.144 283.248L176.728 281.833L172.956 278.061L169.974 275.08L169.184 274.288L159.804 276.802L151.049 268.047L152.182 263.82L160.239 271.876L165.391 270.494L153.564 258.667L152.826 257.929L149.792 254.895L145.898 269.429L158.426 281.958L167.807 279.444L171.579 283.216L157.044 287.111L140.743 270.81L146.018 251.121L144.549 249.652L142.245 247.347L138.472 243.575L136.379 241.482L134.7 239.803L133.471 244.393L133.112 244.75L133.318 244.958L125.282 274.953L137.457 287.13L134.189 290.397L120.126 276.336L130.925 236.033L129.844 234.952L127.153 232.261L123.381 228.489L121.675 226.784L119.607 224.716L104.665 280.481L118.07 293.885L114.802 297.153L99.5106 281.861L115.834 220.944L114.596 219.707L112.061 217.171L108.289 213.399L106.428 211.537L104.517 209.626L84.0524 286.005L139.988 341.94H148.813L218.231 323.34L218.235 323.33ZM222.008 327.104L166.669 341.932H184.522L225.78 330.878L222.008 327.106V327.104ZM78.9013 287.376L100.748 205.843L96.9763 202.071L73.7486 288.758L126.923 341.932H133.458L78.9029 287.377L78.9013 287.376ZM191.326 172.989L195.098 176.761L214.063 195.727L217.836 199.499L219.218 194.346L210.333 185.461L200.253 175.381L216.728 170.966L221.013 169.819L220.705 170.966L218.21 180.27L214.316 176.376L209.162 177.756L220.586 189.181L220.587 189.179L220.6 189.192L225.489 170.964L226.167 168.437L227.549 163.282L222.395 164.663L198.875 170.964L196.479 171.607L191.325 172.989H191.326ZM289.718 258.313L295.732 256.701V251.918L291.1 253.159L237.072 199.131L244.62 170.964L254.777 133.06L258.549 136.832L249.404 170.964L242.226 197.75L259.403 214.927L262.671 218.194L265.938 214.927L269.206 211.659L272.473 208.392V208.39L269.206 205.123V205.124L257.688 193.607L263.754 170.964L269.867 148.149L273.639 151.922L268.537 170.963L262.84 192.224L278.789 208.173L282.056 211.44L285.324 208.173L288.591 204.905L291.859 201.638L288.591 198.37L278.302 188.081L282.888 170.963L284.957 163.239L288.729 167.011L287.671 170.961L283.454 186.699L295.732 198.977V192.442L288.609 185.318L292.455 170.961L293.884 165.629L292.414 164.16L290.11 161.856L286.338 158.082L284.245 155.989L282.564 154.31L281.334 158.899L280.976 159.258L281.182 159.464L278.102 170.961L273.144 189.462L285.321 201.636L282.053 204.904L267.99 190.842L273.317 170.961L278.789 150.539L277.708 149.459L275.017 146.767L271.245 142.995L269.54 141.291L267.473 139.223L258.967 170.964L252.53 194.987L265.935 208.392L262.667 211.659L247.376 196.368L254.182 170.964L263.699 135.451L262.461 134.213L259.927 131.679L256.153 127.905L254.292 126.044L252.381 124.133L239.832 170.964L231.915 200.511L289.716 258.311L289.718 258.313ZM295.732 185.912V176.587L293.761 183.942L295.732 185.913V185.912ZM295.125 204.909L291.857 208.176L288.59 211.443L285.322 214.711L288.59 217.978L295.732 225.121V218.586L291.857 214.711L295.125 211.443L295.732 212.05V205.513L295.126 204.907L295.125 204.909ZM278.787 214.711H278.789L275.521 211.443L265.719 221.246L265.937 221.463L268.987 224.513L292.481 248.008L295.732 247.136V242.353L293.861 242.855L272.254 221.247L275.521 217.98L295.244 237.702L295.734 237.57V231.658L278.789 214.714L278.787 214.711ZM83.7985 331.93L66.6202 314.753L63.3528 311.486L60.0853 314.753L56.8178 318.021L53.5504 321.288H53.5488L56.8163 324.555L68.3341 336.073L66.7646 341.932H71.5492L73.4884 334.693L60.0837 321.288L63.3512 318.021L78.6427 333.31L76.3321 341.932H81.1151L83.7954 331.93H83.7985ZM27.6313 321.505L30.8988 324.773L34.1662 321.505L37.4337 318.238L40.7011 314.971L37.4337 311.703L28.0201 302.29L0.00793505 309.796V314.579L26.6379 307.444L34.1662 314.972L30.8988 318.24L25.2573 312.598L0.00793505 319.363V324.146L23.8767 317.751L27.6313 321.505ZM29.4007 297.135L47.2361 314.971L50.5035 318.238L60.3059 308.436L60.0885 308.218L57.0384 305.168L33.5442 281.674L0.0095223 290.659V295.442L32.1636 286.827L53.771 308.434L50.5035 311.701L30.7814 291.981L0.00793505 300.227V305.009L29.4007 297.134V297.135ZM63.1845 337.454L47.2361 321.505L43.9686 318.238L40.7011 321.505L37.4337 324.773L34.1662 328.04L37.4337 331.308L47.7232 341.597L47.6328 341.932H52.4157L52.8759 340.215L40.6996 328.039L43.967 324.771L58.0287 338.833L57.1987 341.931H61.9817L63.1814 337.452L63.1845 337.454ZM36.3054 271.369L0.00793505 281.095V285.878L34.9232 276.523L88.9512 330.551L85.9012 341.934H90.6842L94.104 329.17L36.3038 271.37L36.3054 271.369ZM22.4961 322.905L0.00793505 328.931V331.916L0.0111083 331.919L1.42664 333.334L5.19873 337.106L8.18054 340.088L8.97241 340.88L18.3527 338.366L21.92 341.934H28.4549L19.7333 333.214L10.353 335.727L6.57934 331.955L21.1139 328.061L34.9883 341.935H41.5232L22.4945 322.907L22.4961 322.905ZM39.0682 261.061L0.0095223 271.527V276.31L37.6876 266.214L99.2614 327.788L95.4703 341.932H100.255L104.416 326.406L39.0698 261.06L39.0682 261.061ZM1.5155 341.934H3.4928L1.93286 340.374L1.5155 341.934ZM108.551 329.762L107.171 334.916L105.29 341.935H110.073L110.943 338.69L114.19 341.935H120.724L112.325 333.536L108.553 329.764L108.551 329.762ZM272.616 273.554L272.603 273.541V273.539L261.181 262.115L259.8 267.269L263.694 271.162L253.241 273.966L258.803 253.206L268.883 263.286L277.769 272.171L282.921 270.789L279.149 267.017L260.184 248.052L256.412 244.28L255.031 249.434L248.087 275.348L246.706 280.503L251.861 279.121L272.616 273.554ZM227.551 334.252L222.396 335.632L198.877 341.934H216.73L221.014 340.786L220.706 341.934H225.491L226.168 339.404L227.551 334.25V334.252ZM293.379 329.562L295.734 331.917V328.932L293.379 329.564V329.562ZM283.442 313.09L279.67 309.318L295.734 305.014V300.231L270.743 306.928L273.355 309.54L274.515 310.7L278.287 314.472L281.525 317.71L282.061 318.246L295.734 314.582V309.799L283.442 313.092V313.09ZM258.081 294.264L259.425 295.609L263.197 299.381L266.251 302.434L266.97 303.153L295.734 295.447V290.664L268.352 298.002L264.58 294.23L295.736 285.881V281.098L255.653 291.838L258.083 294.268L258.081 294.264ZM285.833 322.016L289.605 325.789L295.732 324.148V319.365L285.832 322.016H285.833ZM248.106 284.289L251.878 288.061L295.732 276.31V271.527L248.104 284.289H248.106ZM263.702 306.42L262.464 305.182L259.93 302.648L256.156 298.876L254.295 297.015L252.384 295.104L239.835 341.935H244.618L254.776 304.03L258.548 307.802L249.402 341.935H254.185L263.702 306.422V306.42ZM292.414 335.132L290.11 332.83L286.338 329.056L284.245 326.963L282.564 325.282L281.334 329.872L280.976 330.23L281.182 330.437L278.102 341.934H282.885L284.954 334.21L288.726 337.982L287.668 341.934H292.451L293.879 336.602L292.409 335.132H292.414ZM278.792 321.51L277.711 320.43L275.02 317.738L271.248 313.964L269.544 312.26L267.476 310.192L258.97 341.934H263.754L269.867 319.119L273.639 322.891L268.537 341.932H273.32L278.792 321.51ZM244.837 287.555L230.266 341.932H235.049L248.609 291.327L244.837 287.555ZM148.816 0.00317329H139.991L141.856 1.8678L148.816 0.00317329ZM184.522 0.00317329H166.669L140.475 7.02209L133.456 0.00317329H126.921L139.093 12.1748L184.52 0.00317329H184.522ZM47.2313 37.2084L48.312 38.289L51.0034 40.9804L54.7755 44.7525L56.4798 46.4569L58.5476 48.5246L71.5492 0.00158725H66.7646L56.1545 39.5982L52.3808 35.8246L61.9801 0H57.1971L47.2281 37.2052L47.2313 37.2084ZM25.9746 9.41833L17.9194 1.36157L12.7667 2.74377L24.594 14.571L25.3319 15.309L28.3661 18.3431L32.2604 3.80859L28.4534 0.00158725H21.9184L27.1061 5.18921L25.973 9.41674L25.9746 9.41833ZM37.4147 2.42956L32.1398 22.1184L33.6092 23.5879L35.9134 25.8921L39.6855 29.6642L41.7787 31.7573L43.4576 33.4378L44.6875 28.8485L45.0461 28.4899L44.8398 28.282L52.4173 0.00317329H47.6344L41.0677 24.5099L37.2956 20.7378L42.5705 1.04895L41.5248 0.00317329H34.9898L37.4162 2.42956H37.4147ZM62.3213 52.2999L63.559 53.5377L66.0949 56.072L69.867 59.8457L71.7285 61.7071L73.6391 63.6178L90.6842 0.00317329H85.9012L71.2476 54.6914L67.4755 50.9193L81.1182 0.00317329H76.3353L62.3228 52.2999H62.3213ZM81.1849 71.1635L100.252 0.00317329H95.4671L77.4112 67.3899L81.1849 71.1619V71.1635ZM67.9437 64.4572L66.5996 63.1131L62.8275 59.3394L59.7743 56.2862L59.0554 55.5658L0.00793505 71.3873V76.1702L57.6732 60.7185L61.4469 64.4906L0.00793505 80.9532V85.7362L70.3733 66.882L67.9437 64.4541V64.4572ZM7.80285 35.815L32.6444 29.1595L30.2862 26.8014L28.8707 25.3859L25.0986 21.6138L22.1168 18.6319L21.3249 17.8401L11.9447 20.3537L3.1897 11.5987L4.32275 7.37121L12.3795 15.428L17.5322 14.0458L5.70495 2.2185L4.96704 1.48059L3.49121 0.00476055H1.51392L0.00793505 5.62561V14.9503L10.5657 25.508L19.9475 22.9944L23.7196 26.7665L9.18505 30.6607L0.00793505 21.4836V28.0185L7.80285 35.8135V35.815ZM5.04162 46.122L40.1902 36.7037L36.4165 32.9316L6.42065 40.9693L2.66601 37.2147L0.0063478 34.5534V41.0899L5.04004 46.1236L5.04162 46.122ZM2.27881 56.429L42.5816 45.6301L46.3537 49.4022L0.896606 61.5818L0.0063478 60.6915V66.6043L55.2801 51.7937L52.6681 49.18L51.508 48.02L47.7359 44.2479L44.4986 41.0106L43.9623 40.4742L3.65942 51.2732L0.0063478 47.6201V54.155L2.27881 56.4275V56.429ZM74.1438 70.6589L0.0063478 90.5239V95.3068L77.9158 74.431L74.1438 70.6589ZM121.02 6.83801L129.905 15.7231L135.057 14.3409L131.285 10.5688L120.72 0.00317329H114.185L121.02 6.83801ZM98.8409 24.0544L103.995 22.6722L124.75 17.1053L124.738 17.0926L124.739 17.0911L113.315 5.66687L111.935 10.8196L115.829 14.7139L105.376 17.5179L110.068 0.00317329H105.285L100.221 18.9001L98.8409 24.0544ZM48.6167 86.1281L43.4624 87.5087L47.2345 91.2808L66.1997 110.246L69.9718 114.017L71.354 108.864L62.4688 99.9787L52.3888 89.8986L73.1488 84.3365L70.3463 94.7895L66.452 90.8952L61.2977 92.2758L72.7203 103.7L72.7219 103.698L72.7346 103.711L78.3015 82.9559L79.6837 77.8016L74.5294 79.1822L48.6151 86.1265L48.6167 86.1281ZM184.164 14.9217L107.786 35.3882L110.216 37.8177L111.56 39.1618L115.332 42.9339L118.385 45.9872L119.106 46.706L180.023 30.383L201.63 51.9904L198.363 55.2579L178.64 35.5373L122.876 50.4797L125.49 53.0918L126.65 54.2518L130.422 58.0255L133.659 61.2612L134.196 61.7976L174.499 50.9986L182.027 58.5269L178.759 61.7944L173.118 56.1529L137.969 65.5713L141.741 69.3433L171.737 61.3056L175.492 65.0603L178.759 68.3277L182.027 65.0603L185.293 61.7928L188.56 58.5254L185.293 55.2579L175.879 45.8443L135.576 56.6433L131.804 52.8712L177.261 40.6916L195.097 58.5269L198.364 61.7944L208.167 51.992L207.949 51.7746L204.899 48.7246L181.405 25.2303L120.486 41.5533L116.714 37.7812L182.785 20.0776L236.813 74.1057L219.11 140.177L215.338 136.405L231.661 75.4879L214.484 58.3111L211.217 55.0437L207.949 58.3111L204.682 61.5786L201.414 64.846V64.8476L204.68 68.1151H204.682L216.199 79.6329L204.02 125.09L200.248 121.318L211.047 81.0151L195.098 65.0666L191.831 61.7992L188.563 65.0666L185.296 68.3341L182.03 71.6015L185.298 74.869L195.587 85.1585L188.93 110.002L185.158 106.228L190.433 86.5391L170.358 66.4647L145.517 73.1218L147.875 75.4784L149.289 76.8939L153.063 80.666L156.044 83.6478L156.836 84.4381L166.216 81.9244L174.971 90.6794L173.838 94.9069L165.782 86.8518L160.629 88.234L172.456 100.061L173.194 100.799L176.23 103.835L180.124 89.3004L167.595 76.7733L158.214 79.2869L154.442 75.5148L168.976 71.6206L185.277 87.9213L180.002 107.609L181.471 109.078L183.776 111.382L187.548 115.154L189.641 117.247L191.32 118.928L192.55 114.339L192.908 113.98L192.702 113.774L200.74 83.7779L188.563 71.6015L191.831 68.3341L205.892 82.3957L195.094 122.699L196.174 123.779L198.866 126.471L202.638 130.243L204.344 131.947L206.411 134.015L221.354 78.2507L207.949 64.846L211.217 61.5786L226.508 76.8685L210.185 137.787L211.423 139.025L213.957 141.561L217.731 145.333L219.592 147.194L221.503 149.105L241.969 72.7266L184.168 14.9249L184.164 14.9217ZM186.927 4.61474L100.241 27.8424L104.013 31.6145L185.545 9.76745L247.119 71.3413L225.272 152.874L229.044 156.646L252.272 69.9591L186.926 4.61316L186.927 4.61474ZM191.325 2.02807L195.097 5.80017L214.062 24.7654L217.834 28.5375L219.216 23.3848L210.331 14.4996L200.251 4.41955L216.726 0.00476055H198.874L196.477 0.647461L191.323 2.02807H191.325ZM218.207 9.31042L214.313 5.41613L209.158 6.79834L220.583 18.2209L220.584 18.2193L220.597 18.232L225.486 0.00476055H220.702L218.207 9.30883V9.31042ZM289.715 87.3532L295.729 85.7425V80.9595L291.097 82.2005L237.069 28.1725L244.616 0.0063478H239.833L231.916 29.5531L289.718 87.3532H289.715ZM262.836 21.2678L278.784 37.2163L282.052 40.4837L285.319 37.2163L288.587 33.9488L291.854 30.6814L288.587 27.4139L278.297 17.1244L282.883 0.0063478H278.1L273.143 18.505L285.319 30.6814L282.052 33.9488L267.988 19.8856L273.316 0.0063478H268.533L262.836 21.2678ZM242.222 26.7919L259.398 43.9686L262.666 47.2361L265.933 43.9686L269.201 40.7027L272.468 37.4353V37.4337L269.201 34.1662L257.683 22.6484L263.75 0.0063478H258.965L252.529 24.029L265.933 37.4337L262.666 40.7011L247.374 25.4097L254.181 0.0063478H249.398L242.22 26.7903L242.222 26.7919ZM295.729 14.9535V5.62878L293.758 12.9841L295.729 14.9551V14.9535ZM283.451 15.7438L295.729 28.0217V21.4868L288.606 14.3632L292.452 0.0063478H287.669L283.453 15.7438H283.451ZM295.121 33.9488L291.854 37.2163L288.587 40.4837L285.319 43.7512L288.587 47.0186L295.729 54.1613V47.6264L291.854 43.7512L295.121 40.4837L295.729 41.0915V34.555L295.123 33.9488H295.121ZM278.784 43.7496H278.786L275.518 40.4822L265.716 50.2845L265.933 50.5019L268.983 53.552L292.478 77.0462L295.729 76.175V71.3921L293.858 71.8935L272.251 50.2861L275.518 47.0186L295.24 66.7408L295.731 66.6091V60.6963L278.786 43.7512L278.784 43.7496ZM286.952 97.6602L295.728 95.3084V90.5255L288.333 92.5059L226.759 30.9337L235.046 0.0063478H230.263L221.606 32.3143L286.952 97.6602ZM27.6282 150.543L30.8956 153.81L34.1631 150.543L37.4305 147.275L40.698 144.008L37.4305 140.74L28.017 131.327L0.00476176 138.833V143.616L26.6348 136.481L34.1631 144.009L30.8956 147.277L25.2541 141.635L0.00476176 148.4V153.183L23.8735 146.788L27.6282 150.543ZM29.3976 126.172L47.2329 144.008V144.009L50.5003 147.275L60.3027 137.473L60.0853 137.255L57.0352 134.205L33.541 110.711L0.0063478 119.696V124.479L32.1604 115.864L53.7678 137.471L50.5003 140.739L30.7782 121.018L0.00476176 129.264V134.047L29.3976 126.171V126.172ZM272.613 102.588L272.6 102.575L261.177 91.1507L259.797 96.305L263.691 100.199L253.238 103.002L258.8 82.2418L268.88 92.3219L277.765 101.207L282.918 99.8248L279.146 96.0527L260.181 77.0875L256.409 73.3138L255.028 78.4681L248.084 104.384L246.703 109.538L251.857 108.156L272.613 102.589V102.588ZM293.374 158.596L295.729 160.951V157.966L293.374 158.598V158.596ZM283.437 142.124L279.665 138.352L295.729 134.048V129.265L270.739 135.962L273.351 138.576L274.511 139.736L278.283 143.508L281.52 146.745L282.056 147.281L295.729 143.617V138.834L283.437 142.127V142.124ZM258.077 123.298L259.421 124.643L263.193 128.415L266.246 131.468L266.965 132.187L295.729 124.479V119.696L268.347 127.032L264.575 123.26L295.731 114.913V110.13L255.649 120.87L258.078 123.3L258.077 123.298ZM285.828 151.05L289.601 154.822L295.728 153.18V148.397L285.827 151.049L285.828 151.05ZM248.101 113.323L251.873 117.095L295.728 105.344V100.561L248.1 113.323H248.101Z" fill="#2A4A68" fill-opacity="0.4"/>
</svg>
