<svg width="24" height="244" viewBox="0 0 24 244" fill="none" xmlns="http://www.w3.org/2000/svg">
<path d="M11.9791 0.876381C18.2395 0.876381 23.3143 5.95122 23.3143 12.2116C23.3143 18.4719 18.2395 23.5468 11.9791 23.5468C5.71876 23.5468 0.643921 18.4719 0.643921 12.2116C0.643921 5.95122 5.71876 0.876381 11.9791 0.876381Z" stroke="#082C50"/>
<path fill-rule="evenodd" clip-rule="evenodd" d="M10.9286 8.50455C11.0333 7.80313 10.5509 7.15091 9.85106 7.04618C9.15123 6.94144 8.49743 7.42386 8.3927 8.12369C8.34509 8.44266 8.04517 8.66483 7.7262 8.61722C7.40723 8.56961 7.18505 8.27127 7.23424 7.95072C7.43419 6.61136 8.68469 5.68619 10.024 5.88773C11.3634 6.08768 12.2886 7.33817 12.087 8.67752C12.0394 8.99649 11.7395 9.21866 11.4205 9.16947C11.1015 9.12186 10.8794 8.82352 10.9286 8.50455Z" fill="#082C50"/>
<path fill-rule="evenodd" clip-rule="evenodd" d="M17.1651 9.43766C17.2699 8.73783 16.7874 8.08561 16.0876 7.97928C15.3862 7.87455 14.734 8.35697 14.6292 9.0568C14.5816 9.37577 14.2833 9.59793 13.9627 9.54874C13.6438 9.50113 13.4216 9.20121 13.4692 8.88224C13.6691 7.54288 14.9196 6.61771 16.259 6.81925C17.5983 7.0192 18.5235 8.26969 18.322 9.60904C18.2744 9.92801 17.976 10.1502 17.6571 10.101C17.3381 10.0534 17.1159 9.75504 17.1635 9.43448L17.1651 9.43766Z" fill="#082C50"/>
<path fill-rule="evenodd" clip-rule="evenodd" d="M20.8388 12.6385C19.9406 17.3325 15.3957 20.4175 10.7016 19.5193C6.00756 18.6211 2.92258 14.0762 3.82077 9.38211C3.88108 9.06473 4.18895 8.85526 4.50633 8.91715C4.82371 8.97745 5.03159 9.28531 4.97129 9.60269C4.1937 13.6636 6.8613 17.5928 10.9222 18.3688C14.9815 19.1448 18.9123 16.4772 19.6883 12.4179C19.7486 12.1005 20.0565 11.891 20.3739 11.9529C20.6913 12.0132 20.8991 12.3211 20.8388 12.6385Z" fill="#082C50"/>
<path fill-rule="evenodd" clip-rule="evenodd" d="M11.3984 160.461L11.2714 160.76C10.3764 160.863 10.9683 160.914 9.87811 161.003C9.83844 161.006 9.79401 161.012 9.76068 161.015L9.37347 161.564C9.36236 161.625 9.33857 161.883 9.34809 162.099L9.32269 165.165C10.5256 165.181 10.4161 165.016 11.2444 165.371L11.8697 165.521C12.725 165.652 12.7631 165.87 14.0184 166.127C14.0914 166.598 14.0327 166.408 13.3915 166.677L6.30756 168.705C5.95526 168.844 5.76801 169.036 5.3205 168.842C3.85896 168.518 4.09699 168.012 4.09065 171.675C4.08589 174.398 4.37946 173.173 5.45856 172.687L5.62361 172.616C5.65059 172.605 5.68072 172.592 5.7077 172.581C5.73468 172.571 5.76642 172.558 5.7934 172.549L6.76777 172.224C6.91694 172.181 6.92486 172.19 7.0534 172.155L7.95478 171.875C8.20075 171.803 8.28485 171.759 8.5816 171.675L18.33 168.899C19.2631 168.582 18.8251 168.821 19.6868 168.84C20.2565 167.988 20.1629 168.069 20.1597 166.715C20.1581 165.811 20.1597 164.905 20.1597 164L19.7805 163.672C19.3631 163.75 19.3837 163.929 18.8965 163.856L17.8555 163.588C17.216 163.415 16.6019 163.056 15.9068 163.056V162.939C16.8891 162.939 16.3622 162.881 17.3334 162.593L18.2523 162.328C19.5123 162.021 18.5728 162.191 19.3663 162.258C19.7424 162.29 19.7551 162.193 19.9138 161.985C19.9391 161.952 20.1264 161.501 20.128 161.49L20.1597 157.389C18.9537 156.581 19.9376 157.703 18.3649 157.059C18.0745 156.94 18.1729 156.988 17.9 156.932L14.312 155.913C13.9105 155.798 13.6534 155.775 13.2773 155.65L8.25947 154.171C7.81355 154.044 7.67547 154.061 7.23272 153.898C5.27923 153.176 6.75507 154.131 4.56672 152.667L4.09382 153.02C4.09382 159.067 3.78913 156.923 5.62043 157.392L9.6623 158.552C9.88446 158.597 9.84319 158.576 10.0495 158.638C10.0876 158.649 10.186 158.689 10.2225 158.702L13.6629 159.749L11.4031 160.457L11.3984 160.461Z" fill="#082C50"/>
<path fill-rule="evenodd" clip-rule="evenodd" d="M10.2321 67.673C10.1829 67.6413 8.83875 66.3813 8.81336 66.0163L18.5062 65.9671C19.4298 66.0179 18.6602 66.294 19.7837 66.2305L19.8408 62.4172C18.8236 62.4759 19.9075 62.7139 18.1492 62.7139L6.21559 62.7171C5.1222 62.7282 5.03174 62.4854 4.39697 62.4299L4.08912 65.564V66.7368C5.00477 67.1763 4.39856 66.4686 5.17139 67.4255C5.52844 67.8682 7.6438 69.6567 7.63269 70.2772C7.62793 70.5565 6.16005 72.0815 5.86012 72.402C5.83632 72.4274 5.76806 72.4973 5.74585 72.5226C4.42395 73.9715 5.45545 72.9035 4.08912 73.8176C4.08912 74.684 4.08912 75.5489 4.08912 76.4153C4.08912 77.788 3.76698 78.445 4.94447 77.9864L5.85694 77.8277C7.18202 77.796 7.61523 77.9769 8.34839 77.9531L9.40846 77.9404C12.0999 78.0832 16.1497 77.815 18.5062 77.9451C19.2314 77.9848 18.9744 78.1705 19.6837 78.1863C20.2249 77.3786 20.163 77.4754 20.1566 76.1805C20.1534 75.2918 20.2074 74.5491 20.0376 73.8192C18.8109 73.5335 20.0043 74.1937 17.7953 74.1746C16.2734 74.1619 9.72108 74.027 9.17042 74.2905C9.1847 73.6398 9.93214 73.0019 10.3796 72.5465L11.5984 71.2849C12.9885 69.7519 12.3665 69.7138 10.6907 67.9222C10.6796 67.9095 10.5415 67.7683 10.5193 67.754C10.2765 67.5985 10.4495 67.6651 10.2352 67.673H10.2321Z" fill="#082C50"/>
<path fill-rule="evenodd" clip-rule="evenodd" d="M8.13571 210.632C8.56101 210.168 10.3971 209.759 11.5872 210.565L12.1966 211.03C12.4521 211.265 12.4839 211.352 12.5822 211.717C13.3043 214.388 12.4442 214.113 10.1146 214.105C8.93551 214.102 8.23251 214.272 7.37557 213.818C7.31686 213.15 7.28671 212.477 7.3359 211.806C7.38668 211.125 7.63901 210.768 8.1373 210.632H8.13571ZM4.20651 217.951C4.63022 217.916 4.60959 217.879 4.89682 217.697C5.23483 217.482 5.19199 217.473 5.73312 217.47C7.16293 217.46 18.3856 217.4 18.7918 217.543C19.2155 217.69 19.452 218.155 19.9265 217.606C20.3391 217.129 20.1534 215.048 20.1534 213.939C20.1534 213.606 19.882 213.483 19.6805 213.348C18.3316 213.709 20.5517 213.821 16.3734 213.821C15.9862 213.821 15.5704 213.342 16.9161 212.474L18.0746 211.744C20.6517 210.294 20.1534 212.101 20.1534 206.975C20.1534 206.423 19.7503 205.939 19.2219 206.628L15.5466 209.218C14.9182 209.218 14.55 208.637 14.1755 208.228C13.9644 207.997 14.1914 208.202 13.9375 207.993C13.7454 207.834 13.4852 207.683 13.2979 207.569C13.079 207.436 12.8869 207.325 12.679 207.242C12.5299 207.183 12.4743 207.179 12.3283 207.12C12.0237 206.999 12.2141 207.053 12.0046 206.972C11.0223 206.593 8.43404 206.687 7.35018 207.283C7.32638 207.296 7.29782 207.313 7.2756 207.326C7.25179 207.339 7.22323 207.356 7.19943 207.369C7.17563 207.382 7.14706 207.399 7.12326 207.41L5.63315 208.518C4.75876 209.421 4.08591 211.013 4.08591 212.049C4.08591 213.007 3.96689 217.341 4.20493 217.951H4.20651Z" fill="#082C50"/>
<path fill-rule="evenodd" clip-rule="evenodd" d="M12.4759 190.092C10.9413 190.092 9.1624 189.762 8.18487 188.478C7.61199 187.726 7.63262 187.64 7.63262 186.669C7.63262 186.135 7.91034 185.987 8.19122 185.692L9.32587 184.821C10.6351 184.156 12.8948 184.146 14.2501 184.662C14.5817 184.789 14.5532 184.795 14.8832 184.973C16.8018 186.009 17.289 187.826 15.2466 189.202L12.4775 190.094L12.4759 190.092ZM11.8856 193.869C13.2519 193.869 15.0022 193.428 16.2385 192.788C16.4352 192.687 16.6272 192.585 16.832 192.438L17.0954 192.228C17.2033 192.144 17.2382 192.119 17.3668 192.027L18.3221 191.211C19.206 190.164 19.6186 189.58 19.9582 188.123C20.2216 186.991 20.3057 186.915 19.8455 185.444C19.5329 184.446 19.3837 184.133 18.668 183.316L18.0206 182.664C18.0031 182.646 17.9793 182.623 17.9619 182.605L17.8397 182.491C17.5239 182.212 17.2335 182.039 16.8827 181.794C16.3289 181.406 15.9735 181.337 15.937 181.323L15.7703 181.253C15.5418 181.156 15.3942 181.101 15.172 181.025C13.9279 180.604 14.6135 180.893 13.8359 180.709C13.3773 180.599 13.7105 180.531 13.1868 180.531H11.0604C10.551 180.531 10.8604 180.596 10.4097 180.707L7.36444 181.796C7.00739 182.045 6.73284 182.213 6.4234 182.508L5.35223 183.562C3.22577 186.401 3.82879 190.254 6.73601 192.173C7.35015 192.577 8.31342 193.123 8.99421 193.341L10.3145 193.674C10.6176 193.717 11.5396 193.871 11.8887 193.871L11.8856 193.869Z" fill="#082C50"/>
<path fill-rule="evenodd" clip-rule="evenodd" d="M13.709 125.284L13.8375 124.889L18.5062 124.881C19.2187 124.937 18.8109 124.975 19.133 125.062C19.652 125.2 19.8138 125.008 19.8218 125.005L19.8186 121.333C18.9553 121.382 19.7504 121.449 18.968 121.58C18.6855 121.628 18.319 121.607 18.0285 121.603C17.3589 121.592 16.6892 121.593 16.0195 121.593C14.7198 121.592 13.4217 121.604 12.1221 121.601L6.21398 121.604C4.52075 121.636 5.50463 121.409 4.562 121.303C4.53979 121.336 4.51916 121.377 4.50646 121.409C4.49377 121.441 4.46995 121.477 4.45408 121.517C4.24144 122.088 4.33507 123.451 4.32555 125.165C5.27929 125.024 4.54455 125.005 5.18408 124.9L7.63268 124.886C9.1212 124.875 9.87816 124.677 10.5082 125.283L10.4637 129.401C9.8623 129.521 6.80431 129.51 5.85534 129.499C4.90319 129.488 5.31102 129.407 4.67943 129.148C4.28746 129.323 4.49853 129.374 4.08911 129.531C4.08911 130.516 4.09703 131.503 4.08275 132.49C4.07323 133.098 3.96374 133.557 4.58422 133.362C5.29198 133.138 4.86035 133.062 5.97754 133.071C8.34045 133.09 17.0748 132.94 18.503 133.074C18.8442 133.106 20.0788 133.969 20.1645 132.373C20.2169 131.384 20.1566 130.191 20.1566 129.179L19.7027 128.804C18.5364 129.101 20.1534 129.179 16.9669 129.179C16.0655 129.179 14.5707 129.385 13.8946 129.061C13.4868 128.211 13.9486 126.376 13.7106 125.284H13.709Z" fill="#082C50"/>
<path fill-rule="evenodd" clip-rule="evenodd" d="M10.5859 105.926C10.8509 105.564 10.8859 105.683 11.8507 105.419C12.2792 105.302 12.6664 105.1 13.3027 105.1V106.635C12.3855 106.559 11.4016 106.116 10.5859 105.927V105.926ZM5.03333 108.404C5.83472 108.404 5.51734 108.493 6.11402 108.622C6.63612 108.734 6.61072 108.741 7.04236 108.874L16.5734 111.627C18.9649 112.273 18.4396 112.218 19.4457 112.889C20.5042 111.969 20.155 111.505 20.155 108.639C20.155 107.849 19.2092 108.384 18.7522 108.281C18.4523 108.212 18.0603 108.089 17.727 107.996C16.4337 107.638 16.8463 107.471 16.8463 105.689C16.8463 103.986 16.256 104.163 18.0841 103.62C20.1661 103.004 20.1534 104.75 20.1534 99.4319C20.1534 99.0479 19.8726 98.9606 19.5631 98.9606C19.0093 98.9606 19.5425 99.3415 17.9921 99.7525L5.62208 103.339C3.84474 103.758 4.08594 101.695 4.08594 108.169C4.08594 108.765 4.53821 108.406 5.03174 108.406L5.03333 108.404Z" fill="#082C50"/>
<path fill-rule="evenodd" clip-rule="evenodd" d="M10.3494 225.387L10.5097 225.311C11.1841 224.996 10.0225 225.523 10.6699 225.234L13.3026 224.56V226.212C12.6171 226.155 11.2412 225.593 10.3494 225.385V225.387ZM5.38869 227.866C5.7997 227.866 5.85684 228.013 6.18533 228.132C6.42178 228.218 6.39481 228.186 6.65189 228.256L18.2236 231.566C18.5823 231.681 18.8679 231.614 19.0917 232.233C20.5152 232.233 20.1549 231.512 20.1549 228.219C20.1549 227.42 19.1425 227.886 19.1393 227.886C18.8314 227.932 19.0949 227.91 18.6823 227.815L17.719 227.583C16.9605 227.312 16.7605 227.407 16.7637 225.503C16.7637 225.149 16.87 224.823 16.8256 224.217C16.7478 223.195 17.2096 223.398 18.2935 223.046C18.9886 222.821 20.1549 223.314 20.1549 222.316V218.893C20.1549 217.866 18.6696 219.046 18.66 219.052C18.1903 219.322 18.2506 219.253 17.6968 219.387L16.1384 219.836C15.9179 219.914 15.8623 219.912 15.5926 219.998C15.564 220.007 15.5322 220.018 15.5037 220.028L13.3233 220.682C13.2947 220.691 13.2646 220.704 13.236 220.712L13.0487 220.761C12.7012 220.845 12.7758 220.797 12.4774 220.899L7.34696 222.383C4.5889 223.39 5.22049 222.672 4.20963 222.906C3.95413 224.001 4.09061 226.596 4.09061 227.864H5.39028L5.38869 227.866Z" fill="#082C50"/>
<path fill-rule="evenodd" clip-rule="evenodd" d="M4.44293 43.5964C5.33795 43.5964 4.9809 43.2425 5.86005 43.2425H18.4998C19.5313 43.2425 20.3978 44.7453 20.3898 41.4715L20.4358 34.1971C20.6453 33.3465 20.8453 34.0321 20.6263 33.091C19.8392 33.091 19.0505 33.0926 18.2634 33.091C17.4604 33.0894 16.4908 32.8498 16.4908 33.6814C16.4908 34.3145 16.8447 34.24 16.8447 34.6256C16.8447 40.0877 17.2128 39.4895 15.6656 39.4673C15.1546 39.4593 14.6404 39.4657 14.1279 39.4657C14.0739 38.8103 13.8724 38.5183 14.2151 37.309C14.2151 37.3059 14.7055 36.2775 14.0104 36.2775C12.3696 36.2775 10.2304 35.9443 10.2304 36.8679C10.2304 37.4281 10.3161 37.3281 10.4415 37.7185C10.6668 38.4215 10.6176 38.8198 10.4668 39.4641H7.9865C7.58343 38.623 7.61835 34.8477 8.01825 33.9353C8.53241 32.7594 7.85162 33.0894 4.44293 33.0894C3.65424 33.0894 4.32234 34.716 4.33344 35.0874C4.39375 37.2265 4.11285 42.1777 4.44293 43.5948V43.5964Z" fill="#082C50"/>
<path fill-rule="evenodd" clip-rule="evenodd" d="M7.63261 90.9324H9.4052C9.70354 90.9324 10.1066 90.6008 10.4716 90.3453C10.9032 90.0422 11.0603 89.9517 11.446 89.5486C11.7713 89.209 11.8728 88.9789 12.1553 88.606L13.1916 86.6906C13.62 85.8416 14.5373 83.1423 15.4291 83.1423C16.2337 83.1423 16.7304 84.6308 16.5527 85.794C16.3527 87.1032 16.4495 86.5351 15.6989 86.835C15.2927 86.9985 15.4767 86.8334 15.3831 87.465C15.2657 88.2569 15.3117 90.0533 15.3117 90.934C15.3117 91.7719 16.3638 90.9626 16.6431 90.8467C17.4667 90.5071 17.7793 90.3691 18.3967 89.6486L18.8061 89.1138C19.352 88.2505 19.2917 88.4378 19.6852 87.3952C20.3724 85.5766 20.1502 83.9849 19.5091 82.2504C19.3202 81.741 18.7236 80.9047 18.3125 80.4937C17.0874 79.2702 14.8848 79.102 13.5582 79.9732C12.6996 80.5366 12.3553 80.9999 11.8348 81.7934C11.3063 82.598 11.0334 83.3121 10.643 84.1436C10.1193 85.2576 9.49566 86.9953 8.45782 87.273C7.19146 86.4256 7.29618 84.2658 7.69132 83.7913C7.96269 83.4644 8.57683 83.5914 8.57683 83.0232C8.57683 79.5812 8.91484 78.7941 7.87224 79.2496L6.6281 79.8954C6.39641 80.0129 6.10917 80.197 5.90446 80.3541C5.73149 80.4858 5.73785 80.4858 5.59978 80.6397L5.27764 81.0253C4.93645 81.4601 4.62224 82.0632 4.42705 82.6551C3.78911 84.5911 3.80973 86.8366 4.85233 88.7536C5.24113 89.4661 5.51409 89.7407 6.09331 90.2278C6.46465 90.5405 7.11845 90.9324 7.63261 90.9324Z" fill="#082C50"/>
<path fill-rule="evenodd" clip-rule="evenodd" d="M11.2952 205.792C12.3854 205.792 13.2789 205.787 14.2993 205.488L15.6672 204.968C15.9671 204.844 16.0004 204.827 16.2972 204.652C17.0065 204.232 17.5175 203.718 18.0761 203.126L18.741 202.373C18.8648 202.192 18.9568 201.983 19.0759 201.764C19.1917 201.551 19.2917 201.402 19.4091 201.151C20.3121 199.23 20.155 197.727 20.155 195.642C20.155 195.045 19.9661 194.656 19.5662 194.459C18.7474 194.053 15.9385 194.344 14.4833 194.344C11.1048 194.344 12.0712 194.734 11.8824 197.175C11.8284 197.867 11.5428 198.027 11.4111 198.593C11.5999 198.874 11.5539 198.716 11.6475 199.065C13.9216 199.065 15.8862 199.46 15.5466 198.003H16.4908C16.5828 199.115 16.5511 199.915 15.4323 200.958C15.3212 201.061 15.4387 200.975 15.2387 201.118C14.9753 201.304 15.0388 201.229 14.788 201.375L13.8819 201.767C12.8393 202.115 11.565 202.164 10.4351 201.813C9.69404 201.583 9.53216 201.434 8.95929 201.044C7.55011 200.085 7.65644 198.741 7.6009 197.36C7.48188 194.379 9.54328 194.932 4.20808 194.932C3.30671 194.932 3.99226 196.326 3.99385 196.327C4.24617 196.978 3.9621 198.533 4.10334 199.523C4.15253 199.868 4.23506 199.923 4.35091 200.339L4.61273 201.14C4.62384 201.167 4.63496 201.197 4.64607 201.224C5.1269 202.41 5.83308 203.2 6.78681 204.043C7.82148 204.954 10.2764 205.792 11.2968 205.792H11.2952Z" fill="#082C50"/>
<path fill-rule="evenodd" clip-rule="evenodd" d="M11.2952 243.803L12.4648 243.674C12.8631 243.59 13.0599 243.616 13.5217 243.551C13.7549 243.517 14.1263 243.384 14.4278 243.276C16.4114 242.56 17.5572 241.456 18.6791 239.733L19.079 238.95C19.5377 237.928 19.5361 237.458 19.5599 236.481C19.5742 235.913 19.6551 235.945 19.6821 235.422C19.6995 235.064 19.644 234.593 19.6916 234.253C19.7535 233.81 20.0344 233.607 20.0344 233.298C20.0344 232.655 19.1679 232.945 18.5014 232.945C15.7909 232.942 15.5482 232.647 16.0353 234.226C16.2591 234.95 16.1353 235.159 16.1353 236.008C16.1337 237.528 15.8735 238.161 14.6706 239.15C14.6515 239.166 14.6246 239.188 14.6055 239.204C14.477 239.306 14.4199 239.353 14.2548 239.444C12.9758 240.14 10.6684 240.196 9.30683 239.534C8.18171 238.987 7.15973 237.649 7.15973 236.603V234.124C7.15973 234.043 7.80243 232.944 7.0423 232.944H3.61616C2.81477 232.944 3.53205 234.434 3.53523 234.442C3.67964 234.853 3.59077 236.532 3.75104 237.649C3.82404 238.161 4.07477 238.887 4.28107 239.361C4.66827 240.247 5.48395 241.426 6.2663 241.981L6.62018 242.218C6.64081 242.234 6.66779 242.254 6.68683 242.27C6.69001 242.273 6.77887 242.354 6.88043 242.43C7.28351 242.735 8.76887 243.34 9.25129 243.484C9.61945 243.595 9.88288 243.551 10.2812 243.635C10.7636 243.736 10.7351 243.801 11.2952 243.801V243.803Z" fill="#082C50"/>
<path fill-rule="evenodd" clip-rule="evenodd" d="M3.85264 146.297C5.30467 146.297 8.35153 146.757 7.8707 145.351C7.41049 144.004 7.51364 144.611 7.51364 142.874C7.51364 142.602 7.59616 142.52 7.86752 142.52H18.3808C19.0886 142.52 19.087 142.747 19.5631 142.874C19.7614 142.74 20.1534 142.337 20.1534 142.047C20.1534 138.929 20.512 138.037 19.2981 138.462C18.7252 138.664 19.1536 138.619 18.1428 138.621L15.5466 138.741C13.9549 138.741 8.68796 138.897 7.51364 138.624V136.853C7.51364 136.102 7.85324 135.65 7.98654 135.082C7.24862 134.728 5.63791 134.845 4.67942 134.845C2.95603 134.845 4.08909 136.24 4.08909 136.499V144.762C4.08909 145.121 3.50828 145.408 3.85264 146.297Z" fill="#082C50"/>
<path fill-rule="evenodd" clip-rule="evenodd" d="M4.74133 50.2075C4.61279 50.1012 4.77624 50.1043 4.58105 50.1741C4.26366 50.2884 4.50329 50.1424 4.44457 50.3249L4.35095 54.2779C5.3269 54.4382 4.00818 54.0415 6.09815 54.0526H16.1401C20.9786 54.0541 19.8281 55.1142 19.8424 46.5465C19.8472 44.1248 20.2106 45.6292 20.1772 44.4105L16.5956 44.3708C16.4845 45.177 16.759 45.2627 16.8526 45.7324C16.9066 46.0053 16.859 47.0114 16.8622 47.3733C16.8669 48.181 16.9558 49.8377 16.8209 50.5439C16.2226 50.8232 16.4083 50.7883 15.553 50.774L7.51684 50.7708C6.63927 50.7692 5.06982 51.0406 4.74292 50.2075H4.74133Z" fill="#082C50"/>
<path fill-rule="evenodd" clip-rule="evenodd" d="M4.32546 152.198C4.89199 152.198 4.93959 151.845 5.50611 151.845H18.3823C19.0774 151.845 19.2916 152.622 19.8804 151.925C20.3628 151.356 20.1533 149.455 20.1533 148.185C20.1533 147.306 19.0552 147.912 19.0536 147.912C17.8396 148.182 5.83779 148.112 5.35536 147.979C5.16335 147.925 4.08583 147.179 4.08583 148.42C4.08583 149.42 3.86684 152.197 4.32228 152.197L4.32546 152.198Z" fill="#082C50"/>
<path fill-rule="evenodd" clip-rule="evenodd" d="M4.08899 57.7897V58.2008L4.3302 58.2293L4.33654 60.232C5.15856 60.0717 5.11731 59.8067 6.09485 59.8194C6.76612 59.8273 7.43419 59.8337 8.10546 59.8432L18.1506 59.8543C18.6045 59.9019 19.2758 60.3542 19.6471 60.1098C19.7994 59.7401 19.8645 56.8789 19.6899 56.452C19.4916 56.452 18.8774 56.8312 18.3807 56.8519C15.0085 56.9931 9.80981 56.7091 6.20752 56.8551C4.92688 56.9074 5.1792 56.4012 4.44287 56.5837L4.34289 57.7628L4.0874 57.7913L4.08899 57.7897Z" fill="#082C50"/>
<path fill-rule="evenodd" clip-rule="evenodd" d="M4.74122 50.2075C5.06813 51.039 6.63758 50.7692 7.51514 50.7708L15.5513 50.774C16.4066 50.7883 16.2194 50.8232 16.8192 50.5439C16.9541 49.8377 16.8652 48.181 16.8605 47.3733C16.8589 47.0114 16.9065 46.0053 16.851 45.7324C16.7573 45.2627 16.4828 45.177 16.5939 44.3708L20.1755 44.4105C20.2089 45.6276 19.8455 44.1233 19.8407 46.5465C19.8248 55.1142 20.9769 54.0542 16.1384 54.0526H6.09645C4.00649 54.0415 5.32521 54.4382 4.34926 54.2779L4.44288 50.3249C4.30482 50.4169 4.08741 50.2281 4.08106 51.2628C4.04932 55.8553 4.11915 54.4588 5.38868 54.3382H19.5646C20.2692 53.2861 20.1581 53.805 20.1549 52.0943V46.4274C20.1533 45.9926 20.0867 45.4499 20.2232 45.0706C20.4231 44.5089 20.6278 44.804 20.2739 44.0677H16.6113C15.7639 45.3325 16.6272 44.4073 16.6113 46.9003C16.605 48.054 16.7161 49.4791 16.4923 50.4423L5.40772 50.4281C4.91736 50.3471 5.29188 50.3249 4.74122 50.2059V50.2075Z" fill="#082C50"/>
<path fill-rule="evenodd" clip-rule="evenodd" d="M4.08911 57.7897L4.3446 57.7612L4.44458 56.5821C5.18249 56.3996 4.92859 56.9058 6.20922 56.8535C9.81152 56.7075 15.0102 56.9915 18.3824 56.8503C18.8775 56.8297 19.4933 56.452 19.6916 56.4504C19.8662 56.8773 19.8011 59.7385 19.6488 60.1082C19.2774 60.3526 18.6062 59.9003 18.1523 59.8527L8.10717 59.8416C7.4359 59.8321 6.76624 59.8273 6.09656 59.8178C5.11902 59.8051 5.16186 60.0701 4.33825 60.2304L4.33191 58.2277L4.0907 58.1992L4.11451 60.2161C4.1399 60.3415 4.14305 60.5795 4.49376 60.5129C5.03649 60.4097 4.58899 60.2272 5.7395 60.2336C7.4867 60.2431 18.1269 60.0876 18.876 60.3399C19.1648 60.4367 18.9014 60.4764 19.8027 60.4764C20.2566 59.6179 20.1645 59.9844 20.1582 58.7054C20.155 57.958 20.1582 57.2089 20.1582 56.4615L19.7789 56.133C18.3761 56.4187 20.2407 56.5805 16.2607 56.5805L6.09497 56.5869C5.15076 56.5662 5.12378 56.2663 4.44617 56.1092C3.98438 56.6424 4.11927 56.3599 4.09229 57.7897H4.08911Z" fill="#082C50"/>
<path fill-rule="evenodd" clip-rule="evenodd" d="M13.709 125.284C14.2834 125.076 17.2954 125.132 18.2729 125.157C19.2584 125.183 20.1629 126.594 20.155 123.513C20.1518 122.493 20.2867 121.728 19.9185 121.035C19.2505 121.035 19.5678 121.036 19.1425 121.203C18.8172 121.331 18.6538 121.374 18.2682 121.392C17.6286 121.42 16.9066 121.39 16.2575 121.39C15.153 121.39 5.63316 121.507 5.12058 121.304C4.56358 121.085 5.09678 121.052 4.32713 121.035C3.96214 121.725 4.09068 122.496 4.09068 123.513C4.09068 126.676 4.03355 125.167 5.85691 125.159L10.1162 125.165C10.5193 126.003 10.3923 128.902 10.2352 129.061C9.9924 129.304 6.51548 129.202 5.73948 129.187C4.75242 129.166 5.13169 128.882 4.44773 128.825C4.18589 129.29 4.20494 128.842 4.09386 129.533C4.50487 129.375 4.2938 129.325 4.68418 129.15C5.31577 129.407 4.90794 129.488 5.86009 129.501C6.80907 129.512 9.86545 129.523 10.4685 129.402L10.5129 125.284C9.88449 124.678 9.12754 124.877 7.63743 124.888L5.18881 124.902C4.55087 125.005 5.28404 125.026 4.3303 125.167C4.33983 123.451 4.2446 122.09 4.45883 121.519C4.47312 121.479 4.49693 121.442 4.51122 121.411C4.52391 121.379 4.54454 121.338 4.56675 121.304C5.50938 121.411 4.5255 121.638 6.21874 121.606L12.1268 121.603C13.4265 121.606 14.7262 121.593 16.0243 121.595C16.6939 121.595 17.3636 121.593 18.0333 121.604C18.3237 121.609 18.6903 121.63 18.9728 121.582C19.7551 121.449 18.9601 121.384 19.8233 121.335L19.8265 125.007C19.8186 125.01 19.6567 125.202 19.1378 125.064C18.8156 124.978 19.2251 124.94 18.511 124.883L13.8423 124.891L13.7137 125.286L13.709 125.284Z" fill="#082C50"/>
<path fill-rule="evenodd" clip-rule="evenodd" d="M10.232 67.673C10.0669 66.7701 9.87968 67.3826 9.28617 66.2623H17.3191C19.5805 66.2591 18.6982 66.4987 19.7995 66.4987C20.0327 65.6243 20.1565 66.7717 20.1534 64.3738C20.1518 63.3836 20.2771 62.8107 19.9169 62.1315C19.0298 62.1315 19.2837 62.4711 18.2681 62.4918L6.09013 62.4902C4.90788 62.4965 5.17448 62.1506 4.32389 62.1315C3.99699 62.7488 4.08268 62.8853 4.08744 63.7835C4.09062 64.377 4.08744 64.9705 4.08744 65.5624L4.39529 62.4283C5.02847 62.4854 5.11894 62.7282 6.21391 62.7155L18.1475 62.7123C19.9058 62.7123 18.8219 62.4743 19.8391 62.4156L19.782 66.2289C18.6585 66.2924 19.4297 66.0163 18.5045 65.9655L8.81169 66.0147C8.83708 66.3797 10.1812 67.6397 10.2304 67.6714L10.232 67.673Z" fill="#082C50"/>
<path fill-rule="evenodd" clip-rule="evenodd" d="M11.3984 160.461C10.7652 160.5 10.9652 160.595 10.5447 160.671C9.38622 160.88 9.51635 159.773 9.08312 161.91L9.04822 164.714C9.06567 164.981 9.08154 165.435 9.45763 165.425C9.48144 165.425 9.50524 165.427 9.51317 165.427C10.3558 165.3 9.65601 165.197 11.1572 165.557L11.5159 165.671C11.5444 165.681 11.573 165.695 11.6016 165.703C12.2823 165.927 12.8901 166.128 13.6566 166.128V166.482C13.1932 166.482 11.984 166.825 11.546 166.969C11.5175 166.979 11.4889 166.992 11.4587 167.001C11.4302 167.011 11.4 167.022 11.3699 167.031C11.2477 167.068 11.208 167.071 11.0874 167.103L7.32324 168.182C7.15979 168.236 7.0376 168.26 6.86462 168.313L5.776 168.647C5.46338 168.742 5.63794 168.737 5.31738 168.845C5.76489 169.039 5.95214 168.847 6.30444 168.709L13.3884 166.681C14.0295 166.411 14.0882 166.601 14.0152 166.13C12.76 165.873 12.7219 165.655 11.8666 165.524L11.2413 165.375C10.413 165.019 10.5209 165.184 9.31957 165.168L9.34497 162.102C9.33545 161.886 9.35926 161.628 9.37037 161.568L9.75756 161.018C9.79089 161.015 9.83532 161.011 9.87499 161.006C10.9668 160.918 10.3733 160.868 11.2683 160.763L11.3953 160.465L11.3984 160.461Z" fill="#082C50"/>
<path fill-rule="evenodd" clip-rule="evenodd" d="M8.13564 210.632C8.67678 210.841 8.28639 210.716 8.62123 210.673C9.14015 210.609 9.25918 210.302 10.7001 210.514C12.0061 210.708 12.7631 212.076 12.3584 213.818C11.0286 213.818 9.5099 213.89 8.20863 213.833C7.49294 213.801 7.61673 213.756 7.62625 212.277C7.62942 211.879 7.6326 211.627 7.7659 211.355C8.00076 210.876 8.0674 211.219 8.13564 210.63V210.632ZM8.13564 210.632C7.63735 210.77 7.38502 211.125 7.33424 211.806C7.28505 212.476 7.3152 213.15 7.37392 213.818C8.23085 214.27 8.93385 214.101 10.1129 214.105C12.4441 214.113 13.3026 214.388 12.5806 211.717C12.4822 211.352 12.4505 211.265 12.195 211.03L11.5856 210.565C10.397 209.759 8.56093 210.167 8.13405 210.632H8.13564Z" fill="#082C50"/>
</svg>
