<svg width="28" height="28" viewBox="0 0 28 28" fill="none" xmlns="http://www.w3.org/2000/svg">
<rect width="28" height="28" rx="14" fill="white"/>
<path fill-rule="evenodd" clip-rule="evenodd" d="M13.0108 11.1926C11.3089 11.7655 9.66658 12.5007 8.10672 13.3881C7.25879 13.8385 6.50959 14.4526 5.90295 15.1947C5.66943 15.4731 5.51244 15.807 5.44734 16.1639C5.38224 16.5207 5.41126 16.8883 5.53155 17.2306C5.7454 17.7844 6.10277 18.2718 6.56728 18.6433C6.86905 18.91 7.20095 19.1407 7.55629 19.331V16.2073H8.12424L8.13927 15.8803H8.62916V13.4343H9.58102V16.0635L10.3455 15.8658V13.9287C11.6012 12.9457 13.1348 12.5359 14.632 12.0149L14.0286 10.8449C13.6739 10.9658 13.3405 11.0742 13.0108 11.1926Z" fill="url(#paint0_linear_175_573)"/>
<path fill-rule="evenodd" clip-rule="evenodd" d="M6.33199 9.7135C5.55465 10.2631 4.93764 11.0082 4.54389 11.8727C4.15014 12.7372 3.99375 13.6903 4.09067 14.6346C4.73811 13.7039 5.55001 12.898 6.48681 12.2563C7.98525 11.2061 9.62833 10.377 11.3651 9.79493C11.6989 9.67734 12.0682 9.5394 12.4175 9.42348C11.551 8.95556 10.5801 8.71263 9.59445 8.71713C8.43036 8.71106 7.29215 9.05897 6.33199 9.71433V9.7135Z" fill="url(#paint1_linear_175_573)"/>
<path d="M14.0931 9.71558L14.1156 9.92581H15.2953C14.916 10.0546 14.5338 10.1751 14.1557 10.3102C11.8978 11.0502 9.72185 12.0181 7.66164 13.1987C6.92261 13.6081 6.25389 14.1322 5.68071 14.7514C5.23638 15.1976 4.97575 15.7932 4.95004 16.421C4.92432 17.0489 5.13539 17.6636 5.54176 18.1443C6.45982 19.3996 7.82104 20.0556 7.94874 20.194C3.06632 17.433 4.65582 15.2521 5.92566 13.9146C7.19551 12.5771 12.2924 10.4427 14.0935 9.71476L14.0931 9.71558Z" fill="url(#paint2_linear_175_573)"/>
<path d="M5.92558 13.9154C4.65573 15.2529 3.06414 17.4339 7.94865 20.1953C7.76336 20.124 7.58358 20.0393 7.41075 19.9418C6.61426 19.5361 5.87136 19.0337 5.19906 18.446C4.89708 18.2269 4.64459 17.9472 4.45788 17.6249C4.27117 17.3027 4.15438 16.945 4.11506 16.575C4.07574 16.205 4.11476 15.831 4.22959 15.4769C4.34443 15.1229 4.53253 14.7967 4.78176 14.5196C5.46783 13.6405 6.32138 12.9049 7.2935 12.3548C9.06637 11.305 10.9371 10.4283 12.8795 9.73718C12.9157 9.72371 12.9539 9.71671 12.9926 9.71643C13.354 9.71643 13.7153 9.71643 14.0947 9.71643C12.294 10.444 7.19668 12.5783 5.92683 13.9162L5.92558 13.9154Z" fill="url(#paint3_linear_175_573)"/>
<path fill-rule="evenodd" clip-rule="evenodd" d="M22.607 6.5312C21.444 6.88188 20.2947 7.27909 19.138 7.65304C18.8557 7.79051 18.5524 7.8801 18.2404 7.91813C17.7906 7.90649 17.3419 7.8317 16.8904 7.81508C16.684 7.79738 16.4919 7.70305 16.3521 7.55083C16.2185 7.42591 16.0759 7.3108 15.9256 7.20638C15.8284 7.13949 15.7128 7.06553 15.578 7.17605C15.8067 7.4133 16.0462 7.62229 16.2728 7.84375C16.3481 7.92312 16.4397 7.98528 16.5415 8.02596C16.6432 8.06663 16.7526 8.08484 16.8621 8.07934C17.004 8.0756 17.3061 8.07934 17.3061 8.07934L17.3153 8.27836C17.3153 8.27836 16.5995 8.63112 16.2386 8.77364C16.1867 8.79842 16.1288 8.80768 16.0718 8.80031C16.0148 8.79293 15.961 8.76923 15.9173 8.73208C15.5734 8.46977 15.2277 8.21022 14.8799 7.95345C14.7367 7.85566 14.5691 7.79933 14.3957 7.79075C14.2222 7.78217 14.0498 7.82166 13.8976 7.90483C13.981 8.0353 14.6904 9.14177 14.6904 9.14177V9.65117H14.7643C15.4735 9.67446 16.1833 9.63078 16.8842 9.5207C17.6719 9.34975 18.4447 9.11647 19.1951 8.82308C19.5127 8.68034 19.8719 8.65831 20.2047 8.76117C20.4469 8.84167 20.7003 8.88373 20.9557 8.88582C21.1686 8.87834 21.265 8.7994 21.2775 8.58084C21.2858 8.4296 21.2775 8.27753 21.2775 8.13253C22.1019 7.86466 22.9086 7.54548 23.6928 7.17688C23.8143 7.11622 23.952 7.06636 24.0046 6.92758C23.9965 6.89342 23.9812 6.86138 23.9596 6.83364C23.938 6.8059 23.9106 6.7831 23.8794 6.76679C23.6133 6.58738 23.3013 6.48734 22.9801 6.47843C22.8528 6.4783 22.7263 6.49692 22.6046 6.53369L22.607 6.5312Z" fill="url(#paint4_linear_175_573)"/>
<path fill-rule="evenodd" clip-rule="evenodd" d="M7.90601 17.9993V19.3858C10.6335 19.2441 13.8755 19.6592 15.9933 21.4118C16.2213 19.8079 16.7149 18.2528 17.4539 16.8098C14.9701 17.2506 9.78427 18.1568 9.78427 18.1568C9.78427 18.1568 15.1837 16.7516 17.7488 16.1412C17.7488 16.1412 18.2522 14.7406 18.5514 14.0999C18.5729 14.0554 18.585 14.0069 18.5869 13.9575C18.5887 13.9081 18.5802 13.8588 18.5621 13.8128C18.5439 13.7668 18.5163 13.725 18.4812 13.6901C18.446 13.6552 18.404 13.6279 18.3577 13.61C18.1652 13.5143 17.9532 13.4637 17.738 13.4621C17.6604 13.4579 17.5828 13.4563 17.5056 13.4563C16.9406 13.4719 16.3782 13.54 15.826 13.6598C14.4861 13.9064 13.1704 14.2692 11.8942 14.7443C11.4644 14.8989 11.046 15.0835 10.6423 15.2965V16.1329C9.6354 16.6046 8.71147 17.2348 7.90601 17.9993ZM17.6374 12.6128C17.0258 12.6017 16.4142 12.6373 15.808 12.7192V12.2995C13.9643 12.5617 12.1958 13.2038 10.6155 14.1851C10.6155 14.1851 10.6427 14.6712 10.6427 14.8964C12.1922 14.2708 13.7813 13.7474 15.3999 13.3296C16.1319 13.1302 16.8873 13.0294 17.6462 13.03C18.091 13.0441 18.5881 13.0778 18.8656 13.5286C19.1994 12.7624 18.578 12.1724 17.637 12.1595L17.6374 12.6128Z" fill="url(#paint5_linear_175_573)"/>
<path d="M7.94824 17.6844V16.6548H8.40309V16.3153H8.98523V13.8173C9.05137 13.7778 9.12765 13.7583 9.20473 13.7612V16.3153H9.72885C9.13336 16.7661 8.54749 17.2119 7.94824 17.6864V17.6844Z" fill="url(#paint6_linear_175_573)"/>
<defs>
<linearGradient id="paint0_linear_175_573" x1="6.30899" y1="17.6763" x2="14.2652" y2="13.5007" gradientUnits="userSpaceOnUse">
<stop stop-color="#03213F"/>
<stop offset="1" stop-color="#095299"/>
</linearGradient>
<linearGradient id="paint1_linear_175_573" x1="4.87437" y1="13.4808" x2="11.1509" y2="9.1996" gradientUnits="userSpaceOnUse">
<stop stop-color="#03213F"/>
<stop offset="1" stop-color="#095299"/>
</linearGradient>
<linearGradient id="paint2_linear_175_573" x1="5.66355" y1="18.1507" x2="15.1194" y2="13.5" gradientUnits="userSpaceOnUse">
<stop stop-color="#03213F"/>
<stop offset="1" stop-color="#095299"/>
</linearGradient>
<linearGradient id="paint3_linear_175_573" x1="5.07113" y1="18.1521" x2="14.146" y2="13.9704" gradientUnits="userSpaceOnUse">
<stop stop-color="#03213F"/>
<stop offset="1" stop-color="#095299"/>
</linearGradient>
<linearGradient id="paint4_linear_175_573" x1="14.8794" y1="9.03743" x2="18.191" y2="3.9505" gradientUnits="userSpaceOnUse">
<stop stop-color="#03213F"/>
<stop offset="1" stop-color="#095299"/>
</linearGradient>
<linearGradient id="paint5_linear_175_573" x1="8.97953" y1="19.6077" x2="18.1054" y2="14.3418" gradientUnits="userSpaceOnUse">
<stop stop-color="#03213F"/>
<stop offset="1" stop-color="#095299"/>
</linearGradient>
<linearGradient id="paint6_linear_175_573" x1="8.12122" y1="16.921" x2="9.99146" y2="16.5112" gradientUnits="userSpaceOnUse">
<stop stop-color="#03213F"/>
<stop offset="1" stop-color="#095299"/>
</linearGradient>
</defs>
</svg>
