<svg width="255" height="255" viewBox="0 0 255 255" fill="none" xmlns="http://www.w3.org/2000/svg">
<rect width="255" height="255" rx="127.5" fill="#082C50"/>
<path fill-rule="evenodd" clip-rule="evenodd" d="M118.492 101.933C102.992 107.15 88.0351 113.846 73.8292 121.928C66.107 126.029 59.2839 131.622 53.7592 138.381C51.6325 140.916 50.2028 143.957 49.6099 147.207C49.017 150.457 49.2813 153.804 50.3768 156.922C52.3244 161.965 55.579 166.404 59.8094 169.787C62.5576 172.216 65.5803 174.317 68.8164 176.05V147.602H73.9888L74.1257 144.624H78.5872V122.348H87.256V146.293L94.2184 144.492V126.851C105.654 117.898 119.62 114.167 133.256 109.421L127.761 98.7656C124.531 99.8667 121.494 100.854 118.492 101.933Z" fill="url(#paint0_linear_123_443)"/>
<path fill-rule="evenodd" clip-rule="evenodd" d="M57.6664 88.4622C50.587 93.4676 44.9678 100.253 41.3819 108.127C37.7959 116 36.3716 124.679 37.2543 133.28C43.1506 124.803 50.5447 117.464 59.0763 111.62C72.7228 102.055 87.6866 94.5049 103.503 89.2038C106.544 88.1329 109.907 86.8767 113.088 85.821C105.197 81.5596 96.3547 79.3472 87.378 79.3882C76.7765 79.3329 66.4107 82.5014 57.6664 88.4698V88.4622Z" fill="url(#paint1_linear_123_443)"/>
<path d="M128.347 88.4811L128.553 90.3957H139.296C135.842 91.5687 132.361 92.6663 128.917 93.8961C108.355 100.636 88.5378 109.45 69.7752 120.202C63.0447 123.93 56.9547 128.704 51.7346 134.343C47.688 138.407 45.3144 143.831 45.0803 149.549C44.8461 155.267 46.7683 160.865 50.4691 165.243C58.8301 176.675 71.2269 182.649 72.3899 183.909C27.925 158.765 42.4008 138.903 53.9655 126.722C65.5301 114.541 111.948 95.1032 128.351 88.4737L128.347 88.4811Z" fill="url(#paint2_linear_123_443)"/>
<path d="M53.9654 126.73C42.4007 138.91 27.9059 158.773 72.3898 183.921C70.7023 183.272 69.065 182.501 67.491 181.613C60.2372 177.919 53.4716 173.343 47.3488 167.991C44.5987 165.995 42.2992 163.448 40.5988 160.513C38.8984 157.578 37.8348 154.321 37.4767 150.951C37.1186 147.582 37.474 144.175 38.5198 140.951C39.5656 137.726 41.2786 134.756 43.5484 132.232C49.7965 124.226 57.57 117.526 66.4232 112.517C82.569 102.956 99.6057 94.9724 117.296 88.6779C117.625 88.5552 117.974 88.4915 118.325 88.489C121.617 88.489 124.908 88.489 128.362 88.489C111.964 95.1147 65.5415 114.553 53.9768 126.737L53.9654 126.73Z" fill="url(#paint3_linear_123_443)"/>
<path fill-rule="evenodd" clip-rule="evenodd" d="M205.886 59.4806C195.294 62.6743 184.828 66.2917 174.293 69.6973C171.722 70.9493 168.96 71.7652 166.119 72.1115C162.022 72.0056 157.936 71.3244 153.824 71.1731C151.944 71.0118 150.194 70.1528 148.921 68.7665C147.704 67.6289 146.406 66.5805 145.037 65.6295C144.152 65.0203 143.099 64.3468 141.872 65.3533C143.954 67.514 146.136 69.4173 148.199 71.4342C148.885 72.157 149.72 72.7231 150.646 73.0935C151.573 73.464 152.569 73.6298 153.566 73.5797C154.858 73.5456 157.61 73.5797 157.61 73.5797L157.693 75.3922C157.693 75.3922 151.175 78.6049 147.888 79.9028C147.415 80.1285 146.888 80.2128 146.369 80.1457C145.849 80.0785 145.36 79.8627 144.961 79.5243C141.83 77.1354 138.681 74.7717 135.514 72.4332C134.21 71.5426 132.683 71.0296 131.104 70.9515C129.525 70.8733 127.954 71.233 126.568 71.9904C127.328 73.1786 133.788 83.2554 133.788 83.2554V87.8945H134.461C140.92 88.1067 147.384 87.7089 153.767 86.7064C160.942 85.1495 167.979 83.025 174.814 80.3531C177.706 79.0531 180.977 78.8525 184.007 79.7892C186.214 80.5223 188.522 80.9054 190.847 80.9245C192.786 80.8563 193.664 80.1374 193.778 78.147C193.854 76.7696 193.778 75.3847 193.778 74.0641C201.286 71.6245 208.633 68.7178 215.775 65.3609C216.881 64.8084 218.135 64.3543 218.614 63.0905C218.54 62.7793 218.401 62.4876 218.204 62.235C218.007 61.9823 217.758 61.7747 217.474 61.6261C215.05 59.9922 212.209 59.0811 209.284 59C208.125 58.9988 206.973 59.1683 205.864 59.5033L205.886 59.4806Z" fill="url(#paint4_linear_123_443)"/>
<path fill-rule="evenodd" clip-rule="evenodd" d="M72.0017 163.922V176.549C96.8412 175.259 126.367 179.039 145.654 195C147.731 180.394 152.225 166.231 158.955 153.089C136.335 157.104 89.1073 165.356 89.1073 165.356C89.1073 165.356 138.281 152.559 161.642 147C161.642 147 166.226 134.245 168.95 128.41C169.147 128.004 169.257 127.563 169.274 127.113C169.291 126.663 169.213 126.214 169.048 125.795C168.882 125.376 168.631 124.996 168.311 124.678C167.991 124.36 167.608 124.112 167.187 123.948C165.434 123.076 163.503 122.616 161.543 122.601C160.836 122.563 160.13 122.548 159.427 122.548C154.281 122.69 149.16 123.311 144.13 124.402C131.927 126.647 119.946 129.952 108.322 134.278C104.408 135.686 100.598 137.367 96.9211 139.308V146.925C87.7516 151.221 79.3372 156.96 72.0017 163.922ZM160.627 114.866C155.057 114.765 149.487 115.089 143.966 115.836V112.014C127.175 114.401 111.069 120.249 96.6775 129.185C96.6775 129.185 96.9248 133.613 96.9248 135.664C111.036 129.966 125.509 125.199 140.25 121.394C146.916 119.578 153.796 118.661 160.707 118.666C164.758 118.794 169.285 119.101 171.812 123.207C174.852 116.229 169.194 110.856 160.624 110.738L160.627 114.866Z" fill="url(#paint5_linear_123_443)"/>
<path d="M72.3857 161.054V151.678H76.5281V148.585H81.8297V125.836C82.4321 125.476 83.1267 125.299 83.8288 125.325V148.585H88.602C83.1788 152.691 77.8431 156.752 72.3857 161.073V161.054Z" fill="url(#paint6_linear_123_443)"/>
<defs>
<linearGradient id="paint0_linear_123_443" x1="50.6445" y1="137.408" x2="126.978" y2="113.841" gradientUnits="userSpaceOnUse">
<stop stop-color="white"/>
<stop offset="0.515968" stop-color="#B0B2B4"/>
<stop offset="1" stop-color="white"/>
</linearGradient>
<linearGradient id="paint1_linear_123_443" x1="38.2174" y1="106.334" x2="103.484" y2="80.1455" gradientUnits="userSpaceOnUse">
<stop stop-color="white"/>
<stop offset="0.515968" stop-color="#B0B2B4"/>
<stop offset="1" stop-color="white"/>
</linearGradient>
<linearGradient id="paint2_linear_123_443" x1="43.6946" y1="136.192" x2="132.977" y2="110.36" gradientUnits="userSpaceOnUse">
<stop stop-color="white"/>
<stop offset="0.515968" stop-color="#B0B2B4"/>
<stop offset="1" stop-color="white"/>
</linearGradient>
<linearGradient id="paint3_linear_123_443" x1="38.7979" y1="136.205" x2="123.239" y2="113.316" gradientUnits="userSpaceOnUse">
<stop stop-color="white"/>
<stop offset="0.515968" stop-color="#B0B2B4"/>
<stop offset="1" stop-color="white"/>
</linearGradient>
<linearGradient id="paint4_linear_123_443" x1="128.041" y1="73.475" x2="178.503" y2="27.876" gradientUnits="userSpaceOnUse">
<stop stop-color="white"/>
<stop offset="0.515968" stop-color="#B0B2B4"/>
<stop offset="1" stop-color="white"/>
</linearGradient>
<linearGradient id="paint5_linear_123_443" x1="73.612" y1="152.869" x2="163.483" y2="122.363" gradientUnits="userSpaceOnUse">
<stop stop-color="white"/>
<stop offset="0.515968" stop-color="#B0B2B4"/>
<stop offset="1" stop-color="white"/>
</linearGradient>
<linearGradient id="paint6_linear_123_443" x1="72.6452" y1="143.198" x2="88.5306" y2="141.15" gradientUnits="userSpaceOnUse">
<stop stop-color="white"/>
<stop offset="0.515968" stop-color="#B0B2B4"/>
<stop offset="1" stop-color="white"/>
</linearGradient>
</defs>
</svg>
